# xmcd
#
# Track frame offsets: 
#        150
#        15473
#        36507
#        54435
#        66665
#        77711
#        99316
#        116255
#        131551
#        152712
#        165117
#        178594
#        199759
#        215319
#        240297
#        252848
#        271286
#        290050
#        303369
#        316594
#        335449
#
# Disc length: 4717 seconds
#
# Revision: 0
# Processed by: cddbd v1.5.2PL0 Copyright (c) Steve Scherf et al.
# Submitted via: ExactAudioCopy v1.0b1
#
DISCID=18126b15
DTITLE=Various Artist - Jazz For The Two for you
DYEAR=2010
DGENRE=Jazz
TTITLE0=Billie Holiday - I'm a Fool to Want You (Edited Master cs 8048
TTITLE0=)
TTITLE1=Tony Bennett - Smile (with Barbra Streisand)
TTITLE2=Sarah Vaughan - Smoke Gets in Your Eyes
TTITLE3=Nat King Cole - Autumn leaves
TTITLE4=Dinah Washington - Cry Me a River
TTITLE5=Ray Charles, Betty Carter - Alone Together
TTITLE6=Diana Krall - Why Should I Care
TTITLE7=Tony Bennett - The Boulevard Of Broken Dreams (with Sting)
TTITLE8=Diane Schuur - The Man I Love
TTITLE9=Nat King Cole - Love Is A Many Splendoured Thing
TTITLE10=Sarah Vaughan - Misty
TTITLE11=Ray Charles, Betty Carter - Ev'ry Time We Say Goodbye
TTITLE12=Billie Holiday - For Heaven's Sake
TTITLE13=Al Jarreau - My Foolish Heart
TTITLE14=Dinah Washington - Mad About the Boy
TTITLE15=Tony Bennett - Because Of You (with K.D. Lang)
TTITLE16=Natalie Cole - Tell Me All About It
TTITLE17=Tony Bennett - If I Ruled The World (with Celine Dion)
TTITLE18=Nat King Cole - Nature Boy
TTITLE19=Harry Connick Jr. - Bйsame Mucho (Kiss Me Much)
TTITLE20=Johnny Hartman - I Just Dropped By To Say Hello
EXTD=
EXTT0=
EXTT1=
EXTT2=
EXTT3=
EXTT4=
EXTT5=
EXTT6=
EXTT7=
EXTT8=
EXTT9=
EXTT10=
EXTT11=
EXTT12=
EXTT13=
EXTT14=
EXTT15=
EXTT16=
EXTT17=
EXTT18=
EXTT19=
EXTT20=
PLAYORDER=
